<svg xmlns="http://www.w3.org/2000/svg" viewBox="0 0 1024 1024" role="img"><path d="M511.936 1024a78.563 78.563 0 01-39.338-10.539l-125.268-74.11c-18.688-10.454-9.557-14.166-3.414-16.342 24.96-8.661 29.995-10.666 56.661-25.77 2.773-1.579 6.443-.982 9.301.725l96.255 57.13a12.407 12.407 0 0011.606 0l375.25-216.574a11.82 11.82 0 005.716-10.154V295.304a12.088 12.088 0 00-5.845-10.326L517.781 68.575a11.863 11.863 0 00-11.562 0L131.225 285.021a12.112 12.112 0 00-5.93 10.283v433.062a11.489 11.489 0 005.93 10.026l102.783 59.392c55.765 27.903 89.94-4.95 89.94-37.973V332.253a10.781 10.781 0 0110.923-10.795h47.573a10.853 10.853 0 0110.88 10.795V759.81c0 74.452-40.533 117.119-111.103 117.119-21.674 0-38.783 0-86.442-23.51l-98.473-56.618a79.18 79.18 0 01-39.339-68.436V295.304a79.15 79.15 0 0139.339-68.394l375.25-216.83c23.764-13.44 55.295-13.44 78.846 0L926.61 226.91a79.191 79.191 0 0139.424 68.394v433.062a79.365 79.365 0 01-39.424 68.436l-375.207 216.66A78.333 78.333 0 01511.936 1024zm302.973-426.96c0-81.067-54.784-102.656-170.11-117.888-116.522-15.402-128.383-23.38-128.383-50.644 0-22.528 10.027-52.608 96.34-52.608 77.098 0 105.514 16.597 117.204 68.565a10.822 10.822 0 0010.539 8.49h48.682a11.078 11.078 0 007.936-3.456 10.952 10.952 0 002.859-8.362c-7.552-89.514-67.029-131.242-187.22-131.242-107.006 0-170.835 45.141-170.835 120.874 0 82.132 63.487 104.83 166.185 114.985 122.879 12.032 132.393 29.995 132.393 54.144 0 41.94-33.663 59.818-112.724 59.818-99.284 0-121.13-24.917-128.468-74.325a10.883 10.883 0 00-10.795-9.173h-48.511a10.762 10.762 0 00-10.837 10.795c0 63.23 34.389 138.58 198.611 138.58 118.953.042 187.134-46.763 187.134-128.554z"/></svg>